<svg version="1.1" id="Layer_1" xmlns="http://www.w3.org/2000/svg" xmlns:xlink="http://www.w3.org/1999/xlink" x="0px" y="0px"
	 width="100%" viewBox="0 0 1024 1024" enable-background="new 0 0 1024 1024" xml:space="preserve">
<path fill="#FEFEFE" opacity="1.000000" stroke="none" 
	d="
M679.000000,1025.000000 
	C452.666656,1025.000000 226.833328,1025.000000 1.000000,1025.000000 
	C1.000000,683.666687 1.000000,342.333344 1.000000,1.000000 
	C342.333344,1.000000 683.666687,1.000000 1025.000000,1.000000 
	C1025.000000,342.333344 1025.000000,683.666687 1025.000000,1025.000000 
	C909.833313,1025.000000 794.666687,1025.000000 679.000000,1025.000000 
M509.913818,720.184265 
	C516.942444,720.140076 523.971008,720.095886 531.902405,720.209290 
	C538.037537,719.719360 544.210999,719.514526 550.301758,718.694946 
	C605.422180,711.278137 652.784851,687.910522 690.668030,647.244995 
	C742.323242,591.796021 762.028503,526.005676 749.420837,451.177399 
	C746.988403,436.740387 741.318787,422.848846 737.095032,407.983215 
	C732.480957,398.464264 728.390564,388.646057 723.154114,379.482788 
	C707.798706,352.612244 687.478516,329.895813 663.017212,311.037720 
	C654.910950,304.788361 645.960083,299.553162 637.060669,294.436462 
	C627.654236,289.028229 618.111816,283.692078 608.141541,279.476685 
	C598.714783,275.491028 588.846863,272.008850 578.831177,270.078857 
	C562.599426,266.951141 546.148315,264.519714 529.677246,263.208588 
	C514.982361,262.038849 500.189453,263.058044 485.659088,266.522644 
	C474.576599,269.165100 463.077881,270.323273 452.237152,273.672211 
	C410.635040,286.523987 375.798981,309.962921 347.011292,342.578430 
	C312.685364,381.468506 294.058105,426.861938 291.084595,478.523254 
	C288.686340,520.189575 297.331329,559.645203 316.951477,596.561401 
	C331.507690,623.949585 350.546417,647.700378 375.230530,667.640442 
	C389.486664,676.780640 403.742828,685.920898 418.475647,695.554321 
	C422.317871,697.306213 426.160065,699.058105 430.596649,701.226074 
	C440.731415,704.783386 450.866180,708.340698 461.667206,712.273438 
	C477.119659,714.815491 492.572113,717.357605 508.496429,720.087280 
	C508.662170,720.052795 508.827881,720.018372 509.913818,720.184265 
M491.125183,169.857101 
	C424.554230,176.170181 365.240448,200.235886 311.788422,243.206009 
	C326.239716,256.426758 340.221680,269.218201 354.203644,282.009613 
	C354.034424,282.740356 354.841431,282.190796 355.607330,281.588867 
	C372.296997,268.472015 390.342712,257.610687 409.651367,248.790390 
	C436.211182,236.657761 464.063019,229.307327 493.872803,225.686005 
	C493.959106,207.597244 494.061310,189.508469 494.042908,171.419815 
	C494.042419,170.952759 492.721863,170.487045 491.125183,169.857101 
M371.804962,712.740601 
	C361.139435,704.610229 350.473938,696.479858 338.792511,687.575073 
	C326.401550,700.964783 313.743530,714.643127 300.624237,728.819946 
	C309.002899,735.696106 318.149414,743.945435 328.031616,751.191345 
	C390.268555,796.825500 459.974426,818.639709 537.185974,815.426819 
	C608.321167,812.466614 671.892700,788.645386 727.536438,744.287109 
	C790.925720,693.754272 830.510498,628.676819 844.552856,548.638977 
	C853.972229,494.950867 849.962463,442.106445 831.944824,390.551331 
	C810.612549,329.511353 774.100769,279.177673 723.410095,239.241791 
	C679.408142,204.575531 629.590210,182.607681 574.324463,173.301773 
	C562.907227,171.379303 551.311768,170.515533 539.445312,169.122360 
	C539.445312,188.422699 539.445312,206.642380 539.445312,224.936569 
	C541.073547,225.166077 542.377869,225.425827 543.694153,225.524475 
	C585.981079,228.692993 625.599609,240.933350 661.275940,263.634338 
	C737.177063,311.930511 782.129028,380.300507 791.095703,470.693329 
	C795.565857,515.756836 787.490967,558.993530 768.823792,600.136414 
	C749.942078,641.752258 721.969055,676.218689 685.393860,703.662048 
	C629.675354,745.469238 566.818176,763.064392 497.707275,757.426514 
	C452.250610,753.718384 410.446686,738.453857 371.804962,712.740601 
M194.383423,485.964630 
	C194.488220,492.779419 194.381073,499.605072 194.730850,506.407257 
	C197.954849,569.105835 218.510437,625.722229 254.877731,676.707397 
	C260.257965,684.250244 266.183868,691.403809 271.503967,698.280701 
	C285.232178,684.751709 298.484100,671.692078 311.987579,658.384583 
	C292.024963,634.289856 276.894806,607.225647 266.474213,577.653015 
	C255.997589,547.921448 250.898178,517.188538 251.822220,485.281769 
	C232.515839,485.281769 213.758713,485.281769 194.383423,485.964630 
M298.827545,341.337921 
	C306.868134,330.970642 314.908722,320.603363 323.245300,309.854401 
	C310.484253,296.522736 297.527283,282.986420 284.338593,269.208008 
	C237.337234,318.225739 208.150116,375.634033 197.730301,442.941772 
	C217.405884,442.941772 236.500473,442.941772 255.899796,442.941772 
	C262.945587,406.208679 277.083191,372.539062 298.827545,341.337921 
z"/>
<path fill="#104888" opacity="1.000000" stroke="none" 
	d="
M372.111786,712.931213 
	C410.446686,738.453857 452.250610,753.718384 497.707275,757.426514 
	C566.818176,763.064392 629.675354,745.469238 685.393860,703.662048 
	C721.969055,676.218689 749.942078,641.752258 768.823792,600.136414 
	C787.490967,558.993530 795.565857,515.756836 791.095703,470.693329 
	C782.129028,380.300507 737.177063,311.930511 661.275940,263.634338 
	C625.599609,240.933350 585.981079,228.692993 543.694153,225.524475 
	C542.377869,225.425827 541.073547,225.166077 539.445312,224.936569 
	C539.445312,206.642380 539.445312,188.422699 539.445312,169.122360 
	C551.311768,170.515533 562.907227,171.379303 574.324463,173.301773 
	C629.590210,182.607681 679.408142,204.575531 723.410095,239.241791 
	C774.100769,279.177673 810.612549,329.511353 831.944824,390.551331 
	C849.962463,442.106445 853.972229,494.950867 844.552856,548.638977 
	C830.510498,628.676819 790.925720,693.754272 727.536438,744.287109 
	C671.892700,788.645386 608.321167,812.466614 537.185974,815.426819 
	C459.974426,818.639709 390.268555,796.825500 328.031616,751.191345 
	C318.149414,743.945435 309.002899,735.696106 300.624237,728.819946 
	C313.743530,714.643127 326.401550,700.964783 338.792511,687.575073 
	C350.473938,696.479858 361.139435,704.610229 372.111786,712.931213 
z"/>
<path fill="#2799D8" opacity="1.000000" stroke="none" 
	d="
M374.914154,667.044128 
	C350.546417,647.700378 331.507690,623.949585 316.951477,596.561401 
	C297.331329,559.645203 288.686340,520.189575 291.084595,478.523254 
	C294.058105,426.861938 312.685364,381.468506 347.011292,342.578430 
	C375.798981,309.962921 410.635040,286.523987 452.237152,273.672211 
	C463.077881,270.323273 474.576599,269.165100 485.659088,266.522644 
	C500.189453,263.058044 514.982361,262.038849 529.677246,263.208588 
	C546.148315,264.519714 562.599426,266.951141 578.831177,270.078857 
	C588.846863,272.008850 598.714783,275.491028 608.141541,279.476685 
	C618.111816,283.692078 627.654236,289.028229 637.060669,294.436462 
	C645.960083,299.553162 654.910950,304.788361 663.017212,311.037720 
	C687.478516,329.895813 707.798706,352.612244 723.154114,379.482788 
	C728.390564,388.646057 732.480957,398.464264 736.966370,408.696808 
	C733.955139,413.298950 730.016846,414.612579 726.738037,411.669128 
	C722.138855,407.540344 718.050720,402.765991 714.198303,397.907593 
	C711.482056,394.481995 714.054932,390.901764 715.300598,387.595825 
	C716.801575,383.612305 716.018860,381.074371 711.868469,379.368988 
	C703.497620,375.929474 695.002502,373.274567 685.822205,374.030792 
	C681.502319,374.386658 678.110901,373.070221 675.218811,369.787659 
	C671.188171,365.212921 665.880066,365.284821 660.242737,365.675476 
	C653.486572,366.143616 649.206787,373.531189 641.833435,371.843842 
	C641.653381,371.802612 641.281128,372.600586 640.688477,372.882843 
	C635.640137,368.453949 630.965881,364.075989 626.143066,359.868286 
	C622.360535,356.568207 618.394226,353.478699 614.927612,350.179718 
	C623.731262,349.332306 623.919189,341.570862 626.750610,336.275299 
	C627.422913,335.017853 625.583740,332.494202 625.072937,330.508453 
	C624.400452,327.894318 622.866455,324.913544 623.566711,322.672729 
	C624.611145,319.329865 626.804260,315.987213 629.376343,313.566315 
	C633.024414,310.132599 631.856445,308.320862 628.212402,306.635742 
	C622.218262,303.863800 615.974915,301.559235 610.221191,298.364899 
	C606.582153,296.344604 604.178345,297.311371 601.171143,299.256622 
	C594.957520,303.275940 588.937439,308.068176 582.113770,310.559448 
	C571.903931,314.286957 561.071594,316.163513 549.999817,313.997131 
	C543.284729,312.683197 542.589111,311.264771 544.957825,304.761841 
	C545.468567,303.359772 544.376465,301.373840 544.022644,299.656830 
	C542.410034,300.318176 540.628113,300.733002 539.223389,301.697174 
	C536.966797,303.246033 535.219727,305.860870 532.789185,306.760406 
	C528.602112,308.309967 527.299011,311.266083 527.037170,315.112732 
	C526.856873,317.761108 527.004028,320.431702 526.537109,323.118225 
	C520.373596,323.173798 514.677917,323.203522 509.023010,322.880127 
	C511.520905,319.875275 509.861694,318.092194 508.013123,315.975098 
	C506.357697,314.079193 505.377655,311.611389 503.925903,309.516327 
	C500.001801,303.853668 496.379486,297.900879 491.806152,292.809998 
	C490.042511,290.846771 485.940125,289.995148 483.077057,290.295166 
	C480.368774,290.578979 477.044464,292.457520 475.518402,294.682281 
	C473.553314,297.547028 472.858032,301.400177 472.083344,304.930206 
	C471.352997,308.258148 469.629425,310.173889 466.399139,311.070160 
	C464.821442,311.507965 463.289520,312.262665 461.875214,313.105896 
	C458.900330,314.879639 457.115570,316.911530 459.190063,320.805817 
	C460.047424,322.415283 460.087921,326.188629 459.178345,326.721375 
	C454.383698,329.529602 456.592651,332.694611 457.696686,336.151672 
	C431.480743,347.641663 409.332977,363.954926 391.446960,385.942749 
	C360.319916,424.208160 348.003448,467.924957 356.087891,516.447693 
	C365.267975,571.546753 395.821289,612.042419 444.941010,638.270935 
	C455.407471,643.859741 466.976013,647.384644 477.996307,652.220825 
	C474.937927,657.682129 471.263885,662.518616 469.074249,667.953186 
	C466.541595,674.239075 463.142090,679.277405 457.352448,682.880981 
	C450.380646,687.220581 443.485596,685.708923 439.772430,678.377625 
	C438.064240,675.005005 435.295288,673.667847 432.094360,674.293457 
	C428.621216,674.972229 425.341217,676.681091 422.006042,678.013428 
	C417.965363,679.627563 414.084900,681.881836 409.901581,682.844604 
	C403.432678,684.333313 396.336029,677.697693 395.866547,671.028198 
	C395.678009,668.349915 394.726501,664.561646 392.836365,663.434021 
	C389.846619,661.650452 388.077240,660.369568 387.647797,656.559937 
	C387.422668,654.562805 384.417633,651.573547 382.425446,651.366577 
	C378.838867,650.993835 377.627441,654.059204 377.973938,657.573975 
	C378.324585,661.130737 378.076508,664.581665 374.914154,667.044128 
z"/>
<path fill="#2598D7" opacity="1.000000" stroke="none" 
	d="
M375.072327,667.342285 
	C378.076508,664.581665 378.324585,661.130737 377.973938,657.573975 
	C377.627441,654.059204 378.838867,650.993835 382.425446,651.366577 
	C384.417633,651.573547 387.422668,654.562805 387.647797,656.559937 
	C388.077240,660.369568 389.846619,661.650452 392.836365,663.434021 
	C394.726501,664.561646 395.678009,668.349915 395.866547,671.028198 
	C396.336029,677.697693 403.432678,684.333313 409.901581,682.844604 
	C414.084900,681.881836 417.965363,679.627563 422.006042,678.013428 
	C425.341217,676.681091 428.621216,674.972229 432.094360,674.293457 
	C435.295288,673.667847 438.064240,675.005005 439.772430,678.377625 
	C443.485596,685.708923 450.380646,687.220581 457.352448,682.880981 
	C463.142090,679.277405 466.541595,674.239075 469.074249,667.953186 
	C471.263885,662.518616 474.937927,657.682129 478.327240,652.242188 
	C479.133667,651.980408 479.568665,652.057617 480.010498,652.508423 
	C482.240753,657.477661 486.341400,658.212585 491.396362,654.865112 
	C492.151306,654.922058 492.581055,654.976990 493.131104,655.251770 
	C493.534851,655.639954 493.818359,655.808289 494.464661,655.981201 
	C495.552765,656.005127 496.278076,656.024353 497.057281,656.384888 
	C503.468628,663.403137 511.228027,662.953918 519.164917,660.822205 
	C520.642578,660.425232 521.785950,658.783630 523.513916,657.716797 
	C532.515259,656.802246 541.167175,656.356689 549.643433,654.893433 
	C593.116455,647.388428 629.093018,626.685913 655.737183,591.452881 
	C690.434143,545.571106 698.737244,494.543701 682.230957,439.531769 
	C677.414429,423.479126 669.277283,408.965424 660.008911,394.691772 
	C660.430420,393.286621 660.636658,392.091614 661.306519,391.278442 
	C664.022034,387.981628 663.729675,386.121063 659.094421,385.828033 
	C656.687012,385.675842 654.293091,385.309113 651.620728,384.853149 
	C647.898438,380.780396 644.448486,376.893799 640.998535,373.007202 
	C641.281128,372.600586 641.653381,371.802612 641.833435,371.843842 
	C649.206787,373.531189 653.486572,366.143616 660.242737,365.675476 
	C665.880066,365.284821 671.188171,365.212921 675.218811,369.787659 
	C678.110901,373.070221 681.502319,374.386658 685.822205,374.030792 
	C695.002502,373.274567 703.497620,375.929474 711.868469,379.368988 
	C716.018860,381.074371 716.801575,383.612305 715.300598,387.595825 
	C714.054932,390.901764 711.482056,394.481995 714.198303,397.907593 
	C718.050720,402.765991 722.138855,407.540344 726.738037,411.669128 
	C730.016846,414.612579 733.955139,413.298950 736.990112,409.058044 
	C741.318787,422.848846 746.988403,436.740387 749.420837,451.177399 
	C762.028503,526.005676 742.323242,591.796021 690.668030,647.244995 
	C652.784851,687.910522 605.422180,711.278137 550.301758,718.694946 
	C544.210999,719.514526 538.037537,719.719360 531.446350,719.752197 
	C529.062927,716.600647 527.659058,713.078735 525.065247,711.437866 
	C522.310730,709.695435 518.413147,709.796875 515.039612,708.989136 
	C505.926453,706.807129 496.842041,704.503174 487.714386,702.384705 
	C483.598602,701.429382 479.358917,699.953308 475.259277,700.186646 
	C464.363770,700.806702 461.184631,703.789978 461.000916,711.898071 
	C450.866180,708.340698 440.731415,704.783386 430.307556,700.641235 
	C430.574554,698.528931 431.414154,697.035889 431.605133,695.464111 
	C431.787720,693.960999 431.802338,691.427856 431.006378,691.002502 
	C428.494446,689.660217 425.223175,687.907288 422.903625,688.580444 
	C420.817566,689.185852 419.599762,692.783386 417.998962,695.061096 
	C403.742828,685.920898 389.486664,676.780640 375.072327,667.342285 
M543.773804,689.218872 
	C538.129517,690.959290 533.514221,697.403625 534.207886,704.098755 
	C534.481812,706.742615 536.906006,709.287048 538.770996,711.527222 
	C539.101685,711.924438 542.680054,710.740417 542.763245,710.047241 
	C543.577332,703.261169 543.967957,696.424194 543.773804,689.218872 
z"/>
<path fill="#20AAEE" opacity="1.000000" stroke="none" 
	d="
M194.692505,485.623199 
	C213.758713,485.281769 232.515839,485.281769 251.822220,485.281769 
	C250.898178,517.188538 255.997589,547.921448 266.474213,577.653015 
	C276.894806,607.225647 292.024963,634.289856 311.987579,658.384583 
	C298.484100,671.692078 285.232178,684.751709 271.503967,698.280701 
	C266.183868,691.403809 260.257965,684.250244 254.877731,676.707397 
	C218.510437,625.722229 197.954849,569.105835 194.730850,506.407257 
	C194.381073,499.605072 194.488220,492.779419 194.692505,485.623199 
z"/>
<path fill="#21ABEF" opacity="1.000000" stroke="none" 
	d="
M298.612885,341.626892 
	C277.083191,372.539062 262.945587,406.208679 255.899796,442.941772 
	C236.500473,442.941772 217.405884,442.941772 197.730301,442.941772 
	C208.150116,375.634033 237.337234,318.225739 284.338593,269.208008 
	C297.527283,282.986420 310.484253,296.522736 323.245300,309.854401 
	C314.908722,320.603363 306.868134,330.970642 298.612885,341.626892 
z"/>
<path fill="#104888" opacity="1.000000" stroke="none" 
	d="
M493.006958,225.893692 
	C464.063019,229.307327 436.211182,236.657761 409.651367,248.790390 
	C390.342712,257.610687 372.296997,268.472015 355.607330,281.588867 
	C354.841431,282.190796 354.034424,282.740356 354.203644,282.009613 
	C340.221680,269.218201 326.239716,256.426758 311.788422,243.206009 
	C365.240448,200.235886 424.554230,176.170181 491.736938,170.321045 
	C492.567200,172.736740 492.969238,174.687912 492.975372,176.640335 
	C493.026978,193.057999 493.006042,209.475876 493.006958,225.893692 
z"/>
<path fill="#2799D8" opacity="1.000000" stroke="none" 
	d="
M461.334045,712.085754 
	C461.184631,703.789978 464.363770,700.806702 475.259277,700.186646 
	C479.358917,699.953308 483.598602,701.429382 487.714386,702.384705 
	C496.842041,704.503174 505.926453,706.807129 515.039612,708.989136 
	C518.413147,709.796875 522.310730,709.695435 525.065247,711.437866 
	C527.659058,713.078735 529.062927,716.600647 530.994995,719.673340 
	C523.971008,720.095886 516.942444,720.140076 509.373627,719.922791 
	C508.563843,719.740784 508.294220,719.820251 508.024597,719.899719 
	C492.572113,717.357605 477.119659,714.815491 461.334045,712.085754 
z"/>
<path fill="#2799D8" opacity="1.000000" stroke="none" 
	d="
M418.237305,695.307739 
	C419.599762,692.783386 420.817566,689.185852 422.903625,688.580444 
	C425.223175,687.907288 428.494446,689.660217 431.006378,691.002502 
	C431.802338,691.427856 431.787720,693.960999 431.605133,695.464111 
	C431.414154,697.035889 430.574554,698.528931 430.010376,700.433228 
	C426.160065,699.058105 422.317871,697.306213 418.237305,695.307739 
z"/>
<path fill="#073777" opacity="1.000000" stroke="none" 
	d="
M493.439880,225.789856 
	C493.006042,209.475876 493.026978,193.057999 492.975372,176.640335 
	C492.969238,174.687912 492.567200,172.736740 492.182831,170.402847 
	C492.721863,170.487045 494.042419,170.952759 494.042908,171.419815 
	C494.061310,189.508469 493.959106,207.597244 493.439880,225.789856 
z"/>
<path fill="#1C91D2" opacity="1.000000" stroke="none" 
	d="
M508.260498,719.993530 
	C508.294220,719.820251 508.563843,719.740784 508.913513,719.822632 
	C508.827881,720.018372 508.662170,720.052795 508.260498,719.993530 
z"/>
<path fill="#104988" opacity="1.000000" stroke="none" 
	d="
M497.003387,656.043701 
	C496.278076,656.024353 495.552765,656.005127 494.346619,655.754761 
	C493.580811,655.359680 493.295837,655.195801 493.010834,655.031860 
	C492.581055,654.976990 492.151306,654.922058 491.109131,654.629395 
	C486.999054,653.639343 483.501343,652.887085 480.003632,652.134827 
	C479.568665,652.057617 479.133667,651.980408 478.367767,651.881775 
	C466.976013,647.384644 455.407471,643.859741 444.941010,638.270935 
	C395.821289,612.042419 365.267975,571.546753 356.087891,516.447693 
	C348.003448,467.924957 360.319916,424.208160 391.446960,385.942749 
	C409.332977,363.954926 431.480743,347.641663 458.065369,336.118958 
	C464.680450,333.900909 470.518402,331.447144 476.595245,329.988983 
	C487.314087,327.416992 498.178619,325.452240 508.982178,323.233276 
	C514.677917,323.203522 520.373596,323.173798 526.978271,323.142639 
	C530.687927,323.429688 533.489929,323.706177 536.289124,324.008636 
	C556.938416,326.239929 576.841370,331.088715 595.406067,340.722076 
	C601.727661,344.002380 608.139099,347.109436 614.509521,350.295654 
	C618.394226,353.478699 622.360535,356.568207 626.143066,359.868286 
	C630.965881,364.075989 635.640137,368.453949 640.688477,372.882843 
	C644.448486,376.893799 647.898438,380.780396 651.784424,385.149597 
	C654.815857,388.780640 657.411316,391.929016 660.006775,395.077423 
	C669.277283,408.965424 677.414429,423.479126 682.230957,439.531769 
	C698.737244,494.543701 690.434143,545.571106 655.737183,591.452881 
	C629.093018,626.685913 593.116455,647.388428 549.643433,654.893433 
	C541.167175,656.356689 532.515259,656.802246 523.160645,657.507141 
	C513.919128,656.879272 505.461273,656.461487 497.003387,656.043701 
M431.821930,487.549805 
	C430.577179,536.467834 468.015289,576.426331 515.935608,579.784607 
	C571.371826,583.669556 616.656921,535.458374 610.106018,480.183197 
	C603.055054,420.688690 538.401978,384.593658 484.082642,409.915497 
	C477.705841,412.888184 471.644714,416.538025 465.373932,419.907959 
	C469.525818,398.834534 453.994568,383.302673 438.390411,381.957245 
	C420.659271,380.428345 405.252167,393.778168 405.262787,410.943878 
	C405.269379,421.632599 409.982971,430.239197 418.786957,436.350555 
	C427.421204,442.344177 436.938538,443.393188 447.635406,439.782288 
	C438.341278,454.792206 432.322479,469.772186 431.821930,487.549805 
z"/>
<path fill="#2597D6" opacity="1.000000" stroke="none" 
	d="
M614.927612,350.179718 
	C608.139099,347.109436 601.727661,344.002380 595.406067,340.722076 
	C576.841370,331.088715 556.938416,326.239929 536.289124,324.008636 
	C533.489929,323.706177 530.687927,323.429688 527.446045,323.116760 
	C527.004028,320.431702 526.856873,317.761108 527.037170,315.112732 
	C527.299011,311.266083 528.602112,308.309967 532.789185,306.760406 
	C535.219727,305.860870 536.966797,303.246033 539.223389,301.697174 
	C540.628113,300.733002 542.410034,300.318176 544.022644,299.656830 
	C544.376465,301.373840 545.468567,303.359772 544.957825,304.761841 
	C542.589111,311.264771 543.284729,312.683197 549.999817,313.997131 
	C561.071594,316.163513 571.903931,314.286957 582.113770,310.559448 
	C588.937439,308.068176 594.957520,303.275940 601.171143,299.256622 
	C604.178345,297.311371 606.582153,296.344604 610.221191,298.364899 
	C615.974915,301.559235 622.218262,303.863800 628.212402,306.635742 
	C631.856445,308.320862 633.024414,310.132599 629.376343,313.566315 
	C626.804260,315.987213 624.611145,319.329865 623.566711,322.672729 
	C622.866455,324.913544 624.400452,327.894318 625.072937,330.508453 
	C625.583740,332.494202 627.422913,335.017853 626.750610,336.275299 
	C623.919189,341.570862 623.731262,349.332306 614.927612,350.179718 
z"/>
<path fill="#2597D6" opacity="1.000000" stroke="none" 
	d="
M509.023010,322.880127 
	C498.178619,325.452240 487.314087,327.416992 476.595245,329.988983 
	C470.518402,331.447144 464.680450,333.900909 458.366241,335.938995 
	C456.592651,332.694611 454.383698,329.529602 459.178345,326.721375 
	C460.087921,326.188629 460.047424,322.415283 459.190063,320.805817 
	C457.115570,316.911530 458.900330,314.879639 461.875214,313.105896 
	C463.289520,312.262665 464.821442,311.507965 466.399139,311.070160 
	C469.629425,310.173889 471.352997,308.258148 472.083344,304.930206 
	C472.858032,301.400177 473.553314,297.547028 475.518402,294.682281 
	C477.044464,292.457520 480.368774,290.578979 483.077057,290.295166 
	C485.940125,289.995148 490.042511,290.846771 491.806152,292.809998 
	C496.379486,297.900879 500.001801,303.853668 503.925903,309.516327 
	C505.377655,311.611389 506.357697,314.079193 508.013123,315.975098 
	C509.861694,318.092194 511.520905,319.875275 509.023010,322.880127 
z"/>
<path fill="#2799D8" opacity="1.000000" stroke="none" 
	d="
M544.126404,689.410278 
	C543.967957,696.424194 543.577332,703.261169 542.763245,710.047241 
	C542.680054,710.740417 539.101685,711.924438 538.770996,711.527222 
	C536.906006,709.287048 534.481812,706.742615 534.207886,704.098755 
	C533.514221,697.403625 538.129517,690.959290 544.126404,689.410278 
z"/>
<path fill="#2799D8" opacity="1.000000" stroke="none" 
	d="
M497.057281,656.384888 
	C505.461273,656.461487 513.919128,656.879272 522.730286,657.506714 
	C521.785950,658.783630 520.642578,660.425232 519.164917,660.822205 
	C511.228027,662.953918 503.468628,663.403137 497.057281,656.384888 
z"/>
<path fill="#2799D8" opacity="1.000000" stroke="none" 
	d="
M660.008911,394.691772 
	C657.411316,391.929016 654.815857,388.780640 652.056763,385.335785 
	C654.293091,385.309113 656.687012,385.675842 659.094421,385.828033 
	C663.729675,386.121063 664.022034,387.981628 661.306519,391.278442 
	C660.636658,392.091614 660.430420,393.286621 660.008911,394.691772 
z"/>
<path fill="#2799D8" opacity="1.000000" stroke="none" 
	d="
M480.010498,652.508423 
	C483.501343,652.887085 486.999054,653.639343 490.783997,654.627319 
	C486.341400,658.212585 482.240753,657.477661 480.010498,652.508423 
z"/>
<path fill="#2799D8" opacity="1.000000" stroke="none" 
	d="
M493.131104,655.251770 
	C493.295837,655.195801 493.580811,655.359680 493.983826,655.750122 
	C493.818359,655.808289 493.534851,655.639954 493.131104,655.251770 
z"/>
<path fill="#FDFDFE" opacity="1.000000" stroke="none" 
	d="
M431.822876,487.061920 
	C432.322479,469.772186 438.341278,454.792206 447.635406,439.782288 
	C436.938538,443.393188 427.421204,442.344177 418.786957,436.350555 
	C409.982971,430.239197 405.269379,421.632599 405.262787,410.943878 
	C405.252167,393.778168 420.659271,380.428345 438.390411,381.957245 
	C453.994568,383.302673 469.525818,398.834534 465.373932,419.907959 
	C471.644714,416.538025 477.705841,412.888184 484.082642,409.915497 
	C538.401978,384.593658 603.055054,420.688690 610.106018,480.183197 
	C616.656921,535.458374 571.371826,583.669556 515.935608,579.784607 
	C468.015289,576.426331 430.577179,536.467834 431.822876,487.061920 
z"/>
</svg>